<?xml version="1.0" encoding="utf-8"?>
<!-- Generator: Adobe Illustrator 24.0.0, SVG Export Plug-In . SVG Version: 6.00 Build 0)  -->
<svg version="1.1" xmlns="http://www.w3.org/2000/svg" xmlns:xlink="http://www.w3.org/1999/xlink" x="0px" y="0px"
	 viewBox="0 0 422.71 305.42" style="enable-background:new 0 0 422.71 305.42;" xml:space="preserve">
<style type="text/css">
	.st0{display:none;}
	.st1{display:inline;}
	.st2{fill:#FFFFFF;}
	.st3{fill:#F7B239;}
	.st4{fill:#EB1F5A;}
	.st5{fill:#E09B2D;}
	.st6{fill:none;stroke:#FFFFFF;stroke-width:85;stroke-opacity:0;}
</style>
<g id="Layer_2" class="st0">
	<rect x="-94.52" y="-98.79" class="st1" width="595.28" height="841.89"/>
</g>
<g id="Layer_1">
	<g>
		<g>
			<polygon class="st2" points="125.18,94.32 303.94,94.32 303.64,101.26 283.12,252.61 146.55,252.61 126.04,101.26 			"/>
			<path class="st3" d="M125.18,94.32c-3.37-3.68-5.43-8.59-5.43-13.97c0-10.81,8.29-19.68,18.86-20.61
				c-0.75-1.83-1.16-3.84-1.16-5.95c0-8.65,7.01-15.67,15.67-15.67c4.34,0,8.26,1.77,11.1,4.61c2.79-8.12,10.5-13.97,19.57-13.97
				c6.15,0,11.68,2.68,15.46,6.95c2.21-5.98,7.96-10.25,14.71-10.25c7.13,0,13.15,4.78,15.05,11.3c3.79-4.86,9.69-8,16.33-8
				c9.07,0,16.79,5.85,19.58,13.97c2.84-2.85,6.76-4.61,11.1-4.61c8.65,0,15.67,7.02,15.67,15.67c0,2.1-0.42,4.11-1.17,5.95
				c10.57,0.93,18.86,9.79,18.86,20.61c0,5.38-2.06,10.29-5.43,13.97L125.18,94.32z"/>
			<polygon class="st4" points="146.55,252.61 126.04,101.26 146.55,101.26 163.59,252.61 			"/>
			<polygon class="st4" points="170.19,252.61 157.35,101.26 178.26,101.26 187.23,252.61 			"/>
			<polygon class="st4" points="259.32,252.61 272.15,101.26 251.25,101.26 242.28,252.61 			"/>
			<polygon class="st4" points="235.21,252.61 240.84,101.26 219.87,101.26 218.18,252.61 			"/>
			<polygon class="st4" points="194.53,252.61 188.9,101.26 209.87,101.26 211.57,252.61 			"/>
			<polygon class="st4" points="283.12,252.61 303.64,101.26 283.12,101.26 266.09,252.61 			"/>
			<path class="st3" d="M235.01,148.99c8.27,6.16,13.63,16.01,13.63,27.12c0,11.84-6.08,22.26-15.3,28.29
				c-5.31,3.49-11.67,5.51-18.5,5.51c-6.82,0-13.18-2.02-18.49-5.5c-9.22-6.03-15.31-16.45-15.31-28.29
				c0-11.11,5.36-20.97,13.64-27.12c5.63-4.19,12.6-6.67,20.16-6.67C222.39,142.32,229.37,144.8,235.01,148.99z"/>
			<path class="st5" d="M183.66,59.74c-0.75-1.83-1.16-3.84-1.16-5.95c0-8.65,7.01-15.67,15.67-15.67c4.34,0,8.26,1.77,11.1,4.61
				c2.3-6.69,7.94-11.83,14.93-13.44c-2.75-2.38-6.33-3.83-10.25-3.83c-6.75,0-12.5,4.27-14.71,10.25
				c-3.79-4.27-9.31-6.95-15.46-6.95c-9.07,0-16.78,5.85-19.57,13.97c-2.84-2.85-6.77-4.61-11.1-4.61
				c-8.66,0-15.67,7.02-15.67,15.67c0,2.1,0.41,4.11,1.16,5.95c-10.57,0.93-18.86,9.79-18.86,20.61c0,5.38,2.06,10.29,5.43,13.97
				h31.05h14c-3.37-3.68-5.43-8.59-5.43-13.97C164.81,69.54,173.09,60.67,183.66,59.74z"/>
		</g>
		<ellipse class="st6" cx="214.56" cy="333.73" rx="166.95" ry="107.79"/>
	</g>
	<g class="st0">
		<g class="st1">
			<path class="st2" d="M92.69,245.06c1.36,3.49,2.04,5.23,3.41,8.72c-2.45,0.96-3.67,1.45-6.1,2.46c-4.06-9.8-8.12-19.6-12.18-29.4
				c6.21-2.57,9.34-3.78,15.64-6.06c6.82-2.46,13.73-0.3,15.91,6.51c2.06,6.45-1.89,12.32-8.29,14.63
				C97.7,243.12,96.03,243.75,92.69,245.06z M86.5,229.23c1.68,4.29,2.52,6.44,4.19,10.73c3.1-1.21,4.66-1.8,7.79-2.93
				c3.47-1.26,5.18-4.27,4.07-7.49c-1.17-3.41-4.42-4.64-8-3.34C91.32,227.37,89.71,227.98,86.5,229.23z"/>
			<path class="st2" d="M142.72,233.86c0.48,2.14,0.71,3.21,1.19,5.34c-9.57,2.13-14.33,3.38-23.76,6.24
				c-3.08-10.15-6.16-20.3-9.24-30.46c10.21-3.1,15.36-4.45,25.71-6.77c0.48,2.14,0.72,3.2,1.2,5.34
				c-7.46,1.67-11.17,2.61-18.55,4.68c0.8,2.83,1.19,4.24,1.99,7.07c6.32-1.78,9.5-2.59,15.88-4.07c0.49,2.13,0.74,3.2,1.23,5.33
				c-6.28,1.45-9.41,2.25-15.63,4c0.87,3.11,1.31,4.66,2.19,7.76C132,236.35,135.56,235.45,142.72,233.86z"/>
			<path class="st2" d="M172.03,228.7c0.28,2.17,0.42,3.26,0.71,5.43c-9.51,1.24-14.26,2.03-23.68,3.97
				c-2.14-10.39-4.28-20.78-6.42-31.17c2.79-0.57,4.19-0.85,6.99-1.37c1.92,10.37,2.88,15.55,4.8,25.91
				C161.44,230.17,164.97,229.62,172.03,228.7z"/>
			<path class="st2" d="M180.17,201.25c1.03,10.56,2.05,21.12,3.08,31.68c-2.58,0.25-3.86,0.39-6.43,0.69
				c-1.24-10.54-2.47-21.07-3.71-31.61C175.93,201.68,177.35,201.53,180.17,201.25z"/>
			<path class="st2" d="M197.42,231.87c-0.56-10.47-0.84-15.7-1.4-26.17c-4.4,0.23-6.59,0.39-10.98,0.76
				c-0.19-2.24-0.28-3.36-0.47-5.6c9.7-0.87,19.57-1.3,29.31-1.28c0.01,2.25,0.01,3.37,0.02,5.62c-4.38,0.01-6.57,0.05-10.95,0.2
				c0.35,10.48,0.53,15.72,0.88,26.19C201.26,231.67,199.98,231.73,197.42,231.87z"/>
			<path class="st2" d="M239.39,232.32c-2.69-3.96-4.08-5.92-6.94-9.82c-3.08-0.16-4.62-0.22-7.7-0.32
				c-0.11,3.74-0.17,5.61-0.28,9.36c-2.58-0.08-3.88-0.1-6.46-0.13c0.1-10.61,0.21-21.22,0.31-31.83c6.6,0.06,9.9,0.17,16.49,0.54
				c3.7,0.21,6.75,1.47,9.03,3.65c2.31,2.21,3.28,5.06,2.96,8.5c-0.42,4.54-3.36,7.87-7.48,9.45c3.24,4.47,4.81,6.73,7.82,11.27
				C244.05,232.7,242.5,232.56,239.39,232.32z M225.26,205.2c-0.14,4.61-0.2,6.91-0.34,11.52c3.27,0.1,4.91,0.16,8.18,0.34
				c3.68,0.2,6.4-1.91,6.65-5.31c0.26-3.64-2.22-5.99-6.03-6.2C230.34,205.37,228.64,205.3,225.26,205.2z"/>
			<path class="st2" d="M262.22,202.72c-1.4,10.52-2.81,21.03-4.21,31.55c-2.57-0.34-3.85-0.5-6.43-0.79
				c1.2-10.54,2.39-21.08,3.59-31.62C258,202.17,259.41,202.34,262.22,202.72z"/>
			<path class="st2" d="M279.18,231.2c5.7-9.21,8.69-13.76,14.94-22.74c2.97,0.67,4.46,1.03,7.42,1.77
				c-6.78,9.27-13.26,18.58-19.61,28.15c-3.2-0.67-4.8-0.99-8.01-1.58c-2.27-11.26-4.76-22.34-7.53-33.49
				c3.01,0.44,4.51,0.67,7.51,1.17C276.3,215.16,277.36,220.51,279.18,231.2z"/>
			<path class="st2" d="M312.63,213.18c-2.9,10.21-5.79,20.41-8.69,30.62c-2.51-0.71-3.77-1.06-6.29-1.72
				c2.69-10.26,5.39-20.52,8.08-30.78C308.49,212.02,309.87,212.4,312.63,213.18z"/>
			<path class="st2" d="M333.21,253.63c0-2.68-0.01-4.02-0.06-6.71c-5.84-2.22-8.78-3.26-14.69-5.2c-1.72,2.06-2.57,3.1-4.25,5.18
				c-2.66-0.85-3.99-1.26-6.67-2.05c7.46-8.93,15.03-17.54,22.92-26.09c3.11,1.06,4.66,1.61,7.76,2.75
				c0.77,11.62,1.26,23.09,1.47,34.73C337.1,255.16,335.81,254.64,333.21,253.63z M332.16,226.36c-4.22,4.41-6.28,6.65-10.33,11.17
				c4.53,1.52,6.79,2.31,11.28,4C332.84,235.47,332.64,232.44,332.16,226.36z"/>
		</g>
	</g>
	<g class="st0">
		<g class="st1">
			<path class="st2" d="M95.7,218.46c3.53-1.27,6.94-1.22,10.16,0.14c3.24,1.36,5.32,3.63,6.32,6.72c1,3.08,0.65,6.11-0.96,9.1
				c-1.6,3-3.98,5.07-7.2,6.3c-1.93,0.71-2.89,1.08-4.81,1.83c0.94,2.41,1.41,3.62,2.35,6.03c0.31,0.79,0.26,1.57-0.09,2.33
				c-0.35,0.76-0.91,1.32-1.71,1.64c-0.81,0.33-1.61,0.32-2.39,0.01c-0.78-0.31-1.35-0.84-1.67-1.62
				c-4.17-10.06-6.25-15.08-10.41-25.14c-0.32-0.78-0.26-1.57,0.13-2.36c0.4-0.79,1.04-1.39,1.95-1.75
				c0.06-0.02,0.09-0.04,0.15-0.06c0.07-0.02,0.11-0.03,0.18-0.05c0.06-0.03,0.09-0.05,0.14-0.08c0.07-0.03,0.11-0.04,0.18-0.07
				C91.08,220.2,92.62,219.6,95.7,218.46z M101.84,235.11c1.62-0.62,2.82-1.66,3.6-3.15c0.79-1.51,0.94-3.01,0.41-4.52
				c-0.52-1.51-1.57-2.6-3.17-3.26c-1.57-0.65-3.22-0.68-4.92-0.06c-2,0.74-3,1.12-4.99,1.9c1.7,4.37,2.55,6.55,4.25,10.92
				c0.48-0.19,1.03-0.4,1.65-0.64C99.94,235.82,100.57,235.58,101.84,235.11z"/>
			<path class="st2" d="M119.89,216.83c0.84,2.89,1.26,4.34,2.09,7.23c4.1-1.19,6.15-1.75,10.28-2.79c0.9-0.23,1.73-0.11,2.48,0.3
				c0.75,0.41,1.25,1.01,1.44,1.82c0.2,0.82,0.04,1.59-0.43,2.3c-0.47,0.71-1.13,1.2-2.01,1.42c-4.05,1.02-6.06,1.57-10.08,2.74
				c0.85,2.94,1.28,4.42,2.13,7.36c5.16-1.49,7.75-2.18,12.95-3.44c0.86-0.21,1.65-0.1,2.37,0.33c0.74,0.44,1.2,1.06,1.39,1.87
				c0.19,0.82,0.03,1.59-0.41,2.29c-0.45,0.7-1.09,1.17-1.93,1.37c-6.3,1.52-9.43,2.37-15.66,4.25c-0.83,0.25-1.62,0.17-2.37-0.21
				c-0.74-0.38-1.26-0.96-1.52-1.76c-3.25-10.39-4.87-15.58-8.12-25.97c-0.25-0.81-0.13-1.59,0.34-2.34
				c0.46-0.75,1.15-1.29,2.08-1.57c6.93-2.09,10.42-3.03,17.43-4.73c0.94-0.23,1.8-0.11,2.57,0.3c0.77,0.41,1.28,1.03,1.47,1.85
				c0.19,0.81,0,1.57-0.5,2.28c-0.5,0.71-1.2,1.2-2.12,1.42C128.19,214.49,125.42,215.23,119.89,216.83z"/>
			<path class="st2" d="M163.89,228.81c0.85-0.13,1.65,0.04,2.33,0.53c0.68,0.49,1.08,1.16,1.19,1.98c0.12,0.84-0.08,1.58-0.58,2.24
				c-0.52,0.68-1.19,1.07-2.03,1.2c-5.57,0.85-8.35,1.34-13.89,2.46c-0.85,0.17-1.62,0.01-2.32-0.43c-0.7-0.44-1.16-1.07-1.34-1.9
				c-2.27-10.64-3.41-15.97-5.68-26.61c-0.18-0.83,0.02-1.59,0.55-2.3c0.52-0.7,1.26-1.17,2.2-1.36c0.93-0.19,1.78-0.04,2.53,0.41
				c0.76,0.44,1.24,1.07,1.4,1.9c1.82,9.51,2.73,14.27,4.55,23.78C157.22,229.87,159.44,229.49,163.89,228.81z"/>
			<path class="st2" d="M171.86,200.27c0.94-0.11,1.77,0.12,2.48,0.62c0.71,0.51,1.14,1.18,1.23,2.02
				c1.13,10.83,1.69,16.24,2.82,27.06c0.09,0.84-0.16,1.58-0.69,2.22c-0.53,0.64-1.21,1.03-2.05,1.12c-0.86,0.1-1.61-0.13-2.27-0.63
				c-0.66-0.5-1.07-1.17-1.17-2c-1.36-10.8-2.03-16.2-3.39-27c-0.11-0.84,0.16-1.59,0.74-2.24
				C170.14,200.79,170.9,200.38,171.86,200.27z"/>
			<path class="st2" d="M203.01,198.2c0.94-0.02,1.75,0.28,2.43,0.85c0.67,0.57,1.02,1.28,1.03,2.12c0.01,0.83-0.33,1.53-0.98,2.12
				c-0.66,0.59-1.44,0.91-2.37,0.93c-2.92,0.05-4.39,0.1-7.31,0.22c0.4,9.68,0.6,14.51,1,24.19c0.03,0.84-0.23,1.57-0.8,2.17
				c-0.58,0.62-1.29,0.95-2.13,0.99c-0.84,0.04-1.58-0.22-2.23-0.77c-0.63-0.54-0.99-1.23-1.04-2.07c-0.6-9.67-0.91-14.5-1.51-24.16
				c-2.91,0.18-4.37,0.29-7.27,0.54c-0.94,0.08-1.76-0.16-2.45-0.68c-0.7-0.52-1.11-1.18-1.19-2.01c-0.08-0.84,0.2-1.58,0.8-2.22
				c0.6-0.64,1.38-1.02,2.33-1.1C189.98,198.59,194.33,198.36,203.01,198.2z"/>
			<path class="st2" d="M234.61,210.24c-0.18,2.23-1.02,4.22-2.48,5.97c-1.43,1.71-3.24,2.92-5.39,3.66
				c2.14,3.02,3.18,4.53,5.21,7.59c0.48,0.7,0.61,1.46,0.43,2.27c-0.18,0.81-0.62,1.45-1.33,1.9c-0.72,0.45-1.51,0.59-2.33,0.42
				c-0.81-0.17-1.47-0.61-1.96-1.3c-2.83-4.15-4.3-6.21-7.34-10.29c-1.68-0.06-2.51-0.08-4.19-0.11c-0.07,3.24-0.1,4.86-0.16,8.11
				c-0.02,0.84-0.35,1.55-0.95,2.12c-0.6,0.57-1.32,0.87-2.17,0.86c-0.86-0.01-1.58-0.32-2.17-0.9c-0.59-0.58-0.91-1.29-0.91-2.13
				c-0.01-10.89-0.01-16.34-0.02-27.23c0-0.83,0.33-1.54,1.01-2.13c0.66-0.58,1.47-0.86,2.42-0.85c0.06,0,0.1,0,0.16,0
				c0.07,0.01,0.11,0.02,0.19,0.03c0.06-0.01,0.1-0.01,0.16-0.02c0.07,0,0.11,0,0.19,0c4.04,0.05,6.07,0.1,10.11,0.28
				c3.42,0.16,6.3,1.43,8.57,3.77C233.89,204.53,234.86,207.22,234.61,210.24z M222.33,214.53c1.48,0.05,2.79-0.39,3.9-1.31
				c1.1-0.92,1.7-2.07,1.79-3.44c0.08-1.37-0.38-2.59-1.4-3.63c-1.03-1.04-2.32-1.61-3.83-1.69c-2.89-0.12-4.34-0.17-7.23-0.23
				c-0.08,4.03-0.12,6.05-0.2,10.08C218.15,214.36,219.54,214.41,222.33,214.53z"/>
			<path class="st2" d="M244.23,200.04c0.94,0.1,1.7,0.5,2.28,1.15c0.59,0.65,0.85,1.4,0.75,2.24c-1.28,10.81-1.93,16.21-3.21,27.02
				c-0.1,0.84-0.5,1.51-1.16,2.01c-0.65,0.51-1.4,0.74-2.24,0.65c-0.86-0.09-1.55-0.48-2.08-1.11c-0.53-0.63-0.78-1.37-0.7-2.21
				c1.06-10.83,1.59-16.25,2.64-27.08c0.08-0.84,0.5-1.51,1.21-2.02C242.44,200.16,243.28,199.93,244.23,200.04z"/>
			<path class="st2" d="M284.34,207.21c0.76,0.52,1.23,1.2,1.38,2.04s-0.07,1.58-0.62,2.24c-6.58,7.61-12.9,15.59-18.79,23.74
				c-0.02,0.02-0.04,0.04-0.06,0.06s-0.04,0.04-0.06,0.06c-0.09,0.1-0.13,0.15-0.22,0.24c-0.08,0.08-0.13,0.12-0.21,0.2
				c-0.09,0.07-0.14,0.1-0.23,0.17c-0.11,0.06-0.17,0.1-0.28,0.16c-0.11,0.05-0.16,0.07-0.27,0.12c-0.13,0.04-0.19,0.06-0.31,0.11
				c-0.03,0.01-0.05,0.02-0.08,0.03s-0.05,0.02-0.08,0.03c-0.04,0-0.06,0-0.1,0c-0.13,0.01-0.19,0.02-0.32,0.03
				c-0.11,0.02-0.17,0.03-0.28,0.04c-0.12-0.01-0.19-0.02-0.31-0.03c-0.11-0.01-0.17-0.02-0.29-0.03c-0.11-0.03-0.17-0.05-0.28-0.08
				c-0.12-0.03-0.18-0.05-0.3-0.08c-0.1-0.06-0.15-0.08-0.24-0.14c-0.12-0.06-0.17-0.09-0.29-0.15c-0.04-0.02-0.05-0.02-0.09-0.04
				c-0.02-0.02-0.04-0.04-0.06-0.06c-0.03-0.03-0.05-0.04-0.09-0.06c-0.1-0.09-0.15-0.13-0.25-0.21c-0.07-0.08-0.11-0.12-0.18-0.2
				c-0.08-0.1-0.12-0.15-0.2-0.25c-0.06-0.1-0.09-0.15-0.15-0.24c-0.06-0.11-0.09-0.16-0.15-0.26c-0.04-0.12-0.06-0.18-0.09-0.3
				c-0.01-0.03-0.02-0.05-0.04-0.08c-0.01-0.03-0.02-0.05-0.04-0.08c-2.53-9.73-5.52-19.46-8.87-28.94
				c-0.28-0.81-0.21-1.58,0.23-2.31c0.44-0.73,1.1-1.2,1.99-1.41c0.91-0.22,1.78-0.13,2.6,0.28c0.83,0.42,1.39,1.04,1.66,1.86
				c2.99,9.01,4.34,13.54,6.76,22.59c5.53-7.57,8.42-11.29,14.48-18.61c0.55-0.66,1.3-1.05,2.22-1.13
				C282.73,206.45,283.58,206.7,284.34,207.21z"/>
			<path class="st2" d="M293.39,209.21c0.92,0.24,1.61,0.76,2.1,1.49c0.48,0.73,0.63,1.51,0.41,2.33
				c-2.92,10.49-4.38,15.73-7.3,26.21c-0.23,0.81-0.73,1.41-1.46,1.81c-0.73,0.4-1.51,0.51-2.33,0.29c-0.84-0.22-1.47-0.71-1.9-1.42
				c-0.43-0.71-0.57-1.48-0.36-2.3c2.7-10.54,4.05-15.82,6.74-26.36c0.21-0.82,0.73-1.42,1.51-1.81
				C291.59,209.05,292.46,208.96,293.39,209.21z"/>
			<path class="st2" d="M297.72,243.24c-0.57,0.61-1.27,0.94-2.11,0.99c-0.85,0.05-1.62-0.21-2.27-0.76
				c-0.64-0.55-1.01-1.24-1.08-2.06c-0.08-0.83,0.16-1.57,0.72-2.21c6.66-7.57,13.75-14.93,21.05-21.89
				c0.9-0.93,2.09-1.14,3.55-0.63c1.46,0.51,2.25,1.43,2.37,2.72c1.34,10.01,2.27,20.19,2.75,30.27c0.04,0.85-0.23,1.57-0.82,2.17
				c-0.58,0.59-1.31,0.89-2.17,0.91c-0.85,0.02-1.6-0.25-2.24-0.83c-0.64-0.58-1-1.28-1.06-2.11c-0.11-1.78-0.17-2.68-0.31-4.47
				c-0.03,0-0.05,0-0.08,0c-0.02-0.01-0.03-0.01-0.05-0.02c-6.05-2.31-9.09-3.39-15.23-5.36
				C299.54,241.28,298.93,241.93,297.72,243.24z M315.52,238.72c-0.47-4.91-0.74-7.36-1.37-12.29c-3.57,3.44-5.33,5.19-8.76,8.72
				C309.46,236.51,311.48,237.22,315.52,238.72z"/>
		</g>
	</g>
	<g>
		<g>
			<path class="st2" d="M75.23,222.2c1.09-0.55,2.25-1.16,3.46-1.77c1.05-0.53,2.26-1.1,3.61-1.71c1.35-0.61,2.8-1.21,4.35-1.79
				c1.14-0.43,2.28-0.82,3.42-1.18c1.14-0.36,2.26-0.66,3.35-0.89c1.09-0.23,2.12-0.39,3.1-0.47c0.98-0.08,1.86-0.07,2.63,0.05
				c1.9,0.27,3.54,1.07,4.92,2.37c1.37,1.31,2.34,2.86,2.91,4.66c0.41,1.28,0.58,2.63,0.51,4.04c-0.06,1.42-0.41,2.8-1.03,4.15
				c-0.62,1.35-1.55,2.62-2.79,3.82c-1.24,1.2-2.88,2.22-4.84,3.12c-0.63,0.29-1.16,0.57-1.6,0.83c-0.44,0.26-0.68,0.44-0.72,0.52
				c-0.03,0.01-0.02,0.11,0.05,0.29c0.13,0.36,0.44,0.99,0.91,1.89c0.48,0.9,0.98,1.85,1.51,2.85c0.53,1,1.02,1.93,1.48,2.8
				c0.46,0.87,0.76,1.49,0.89,1.85c0.03,0.09,0.05,0.14,0.08,0.23c-0.04,0.08-0.46,0.31-1.24,0.69c-0.79,0.38-1.72,0.8-2.81,1.28
				c-1.09,0.48-2.2,0.97-3.35,1.47c-1.15,0.5-2.11,0.91-2.89,1.22c-0.9,0.36-1.39,0.53-1.48,0.5c-0.22-0.08-0.59-0.7-1.14-1.84
				c-0.54-1.14-1.26-2.72-2.16-4.74c-0.9-2.02-1.98-4.44-3.24-7.26c-1.26-2.82-2.73-5.96-4.43-9.41c-0.75-1.52-1.41-2.89-1.98-4.09
				c-0.58-1.2-0.99-2.09-1.23-2.69C75.29,222.5,75.2,222.24,75.23,222.2z M97.36,225.39c-0.11-0.3-0.26-0.63-0.46-0.98
				c-0.2-0.35-0.52-0.65-0.97-0.88s-1.05-0.34-1.83-0.32c-0.77,0.02-1.77,0.26-2.99,0.71c-0.73,0.27-1.1,0.41-1.82,0.68
				c0.51,1.24,0.77,1.86,1.28,3.11c0.31,0.74,0.59,1.34,0.82,1.82c0.23,0.48,0.46,0.84,0.66,1.09c0.21,0.25,0.42,0.4,0.65,0.45
				c0.23,0.05,0.49,0.02,0.79-0.09c0.2-0.07,0.41-0.18,0.65-0.31c0.23-0.14,0.52-0.3,0.86-0.49c1.17-0.7,1.95-1.39,2.35-2.09
				c0.39-0.7,0.42-1.53,0.08-2.5C97.4,225.5,97.39,225.46,97.36,225.39z"/>
			<path class="st2" d="M132.98,210.88c0.01,0.06-0.25,0.16-0.79,0.29c-0.54,0.13-1.27,0.33-2.2,0.6c-0.93,0.28-2.04,0.63-3.32,1.08
				c-1.29,0.44-2.68,0.98-4.18,1.61c0.26,0.96,0.39,1.45,0.65,2.41c0.22,0.8,0.39,1.31,0.51,1.5c0.13,0.2,0.29,0.28,0.46,0.28
				c0.1,0,0.24-0.01,0.4-0.03c0.16-0.02,0.37-0.07,0.65-0.15c1.13-0.3,2.93-0.87,5.41-1.68c1.52-0.47,2.28-0.7,3.8-1.16
				c0.66,3,0.99,4.5,1.65,7.5c-4.21,1.26-6.31,1.93-10.47,3.33c0.06,0.56,0.1,0.84,0.16,1.4c0.02,0.23,0.05,0.41,0.07,0.55
				c0.02,0.14,0.05,0.29,0.09,0.45c0.02,0.09,0.06,0.19,0.11,0.3c0.05,0.1,0.09,0.23,0.13,0.39c0.21,0.56,0.32,0.84,0.53,1.4
				c2.09-0.66,3.13-0.98,5.23-1.61c0.49-0.15,1.01-0.31,1.57-0.46c0.56-0.15,1.08-0.29,1.56-0.4c0.48-0.12,0.89-0.21,1.24-0.3
				c0.35-0.08,0.59-0.14,0.72-0.17c0.1-0.02,0.28,0.36,0.53,1.13c0.25,0.78,0.55,1.9,0.89,3.37c0.43,1.85,0.65,2.78,1.08,4.63
				c-4.5,1.07-6.74,1.65-11.2,2.88c-2.77,0.78-5.11,1.49-7.03,2.09c-1.92,0.6-3.19,1.01-3.82,1.2c-0.13,0.04-0.2,0.06-0.33,0.1
				c-0.03,0.01-0.06-0.03-0.09-0.12c-0.06-0.18-0.16-0.59-0.3-1.21c-0.14-0.63-0.42-1.71-0.82-3.26c-0.41-1.55-1-3.67-1.78-6.36
				c-0.78-2.69-1.82-6.18-3.14-10.46c-0.17-0.55-0.25-0.83-0.42-1.38c-1.37-4.36-2.05-6.54-3.41-10.9c0.3-0.02,1.16-0.24,2.6-0.64
				c1.43-0.4,3.12-0.88,5.05-1.43c1.73-0.49,3.55-1,5.47-1.54c1.92-0.53,3.71-1.01,5.35-1.44c1.64-0.43,3.03-0.79,4.14-1.09
				c1.11-0.3,1.76-0.47,1.94-0.51c0.22,1.41,0.33,2.11,0.54,3.52c0.07,0.61,0.16,1.17,0.28,1.68c0.12,0.51,0.2,0.97,0.26,1.34
				C132.8,210.08,132.89,210.51,132.98,210.88z"/>
			<path class="st2" d="M162.56,233.06c-1.18,0.22-2.52,0.46-4,0.74c-1.49,0.27-2.99,0.56-4.51,0.86c-1.52,0.3-2.81,0.56-3.88,0.77
				c-0.94,0.19-1.81,0.37-2.61,0.53c-0.81,0.17-1.53,0.31-2.16,0.43c-0.63,0.12-1.13,0.2-1.49,0.25c-0.36,0.05-0.55,0.05-0.55,0.02
				c-0.01-0.03-0.09-0.36-0.24-0.98c-0.16-0.62-0.36-1.48-0.62-2.57s-0.56-2.38-0.91-3.88c-0.35-1.5-0.72-3.12-1.11-4.87
				c-0.2-0.91-0.4-1.82-0.58-2.75c-0.19-0.92-0.39-1.87-0.6-2.84c-1.31-6.18-1.96-9.27-3.26-15.45c5.07-1.55,7.62-2.29,12.75-3.66
				c0.36,2.55,0.54,3.82,0.9,6.37c0.07,0.57,0.13,1.03,0.17,1.36c0.04,0.33,0.08,0.62,0.1,0.86s0.06,0.45,0.09,0.62
				c0.03,0.17,0.07,0.37,0.11,0.59c0.24,1.48,0.4,2.83,0.56,3.92c0.17,1.09,0.33,2.06,0.49,2.91c0.19,1.01,0.36,1.86,0.53,2.56
				c0.16,0.7,0.32,1.33,0.46,1.89c0.14,0.56,0.27,1.1,0.4,1.61c0.13,0.51,0.26,1.12,0.39,1.81c1.19-0.12,2.17-0.21,2.95-0.26
				c0.78-0.06,1.53-0.11,2.24-0.17c0.71-0.05,1.46-0.13,2.23-0.22c0.77-0.09,1.75-0.23,2.92-0.41c0.66,3.78,0.99,5.68,1.65,9.46
				C164.54,232.69,163.74,232.84,162.56,233.06z"/>
			<path class="st2" d="M167.19,220.14c-0.05-0.35-0.11-0.86-0.19-1.55c-0.08-0.68-0.17-1.47-0.28-2.36
				c-0.11-0.89-0.23-1.86-0.35-2.91c-0.13-1.05-0.27-2.11-0.42-3.19c-0.11-0.76-0.16-1.14-0.27-1.9c-0.54-3.53-0.81-5.3-1.35-8.83
				c1.22-0.17,1.84-0.26,3.06-0.42c0.43-0.06,0.91-0.13,1.45-0.21c0.54-0.08,1.1-0.17,1.69-0.26c0.59-0.09,1.16-0.17,1.72-0.25
				c0.55-0.08,1.06-0.16,1.53-0.25c1.33-0.21,2-0.31,3.33-0.51c0.41,3.95,0.62,5.93,1.03,9.88c0.35,3.31,0.67,6.16,0.97,8.56
				c0.3,2.4,0.57,4.45,0.79,6.14s0.42,3.09,0.58,4.16s0.27,1.92,0.33,2.52c0.1,0.95,0.08,1.54-0.07,1.74
				c-5.04,0.33-7.56,0.54-12.6,1.07C167.76,227.01,167.57,224.72,167.19,220.14z"/>
			<path class="st2" d="M181.81,205.29c-0.06-0.67-0.13-1.26-0.19-1.77c-0.07-0.51-0.14-1.07-0.24-1.69s-0.19-1.21-0.27-1.78
				c-0.24-1.42-0.36-2.14-0.61-3.56c0.15,0.02,0.35,0.02,0.6-0.01c0.25-0.02,0.58-0.05,0.97-0.09c0.54-0.05,1.17-0.1,1.89-0.17
				c0.72-0.06,1.42-0.13,2.11-0.2c0.68-0.07,1.32-0.13,1.92-0.17c0.6-0.04,1.04-0.08,1.33-0.1c6.61-0.46,9.92-0.62,16.54-0.78
				c2.34-0.06,3.52-0.08,5.86-0.1c-0.07,1.42-0.11,2.13-0.18,3.55c-0.07,0.61-0.1,1.22-0.12,1.83c-0.01,0.61-0.04,1.17-0.06,1.68
				c-0.03,0.57-0.04,1.15-0.04,1.73c-0.78,0.04-1.49,0.07-2.14,0.08c-0.65,0.01-1.43,0.02-2.33,0.04c-0.9,0.02-1.86,0.05-2.88,0.08
				c-0.34,0.01-0.51,0.02-0.85,0.03c-0.36,0.01-0.54,0.02-0.9,0.03c0.04,1.13,0.06,1.7,0.1,2.83c0.05,1.31,0.12,2.89,0.22,4.72
				c0.1,1.84,0.19,3.72,0.28,5.66c0.09,1.93,0.18,3.79,0.27,5.56c0.09,1.77,0.16,3.24,0.2,4.39c0.02,0.45,0.02,0.82,0.01,1.13
				c-0.01,0.31-0.01,0.55,0,0.74c-5.04-0.02-7.57,0.02-12.62,0.2c-0.08-4.6-0.11-6.89-0.18-11.49c-0.02-0.7-0.06-1.87-0.12-3.5
				c-0.06-1.63-0.17-3.48-0.32-5.56c-0.02-0.32-0.04-0.63-0.07-0.93c-0.02-0.3-0.06-0.61-0.12-0.93c-0.06-0.84-0.09-1.26-0.15-2.11
				c-1.13,0.11-2.16,0.21-3.11,0.28c-0.95,0.08-1.78,0.15-2.48,0.21c-0.7,0.06-1.27,0.11-1.69,0.15
				C182.03,205.32,181.81,205.32,181.81,205.29z"/>
			<path class="st2" d="M215.51,195.88c0.04-0.03,0.35-0.06,0.95-0.07c0.6-0.01,1.37-0.03,2.33-0.05c0.96-0.02,2.06-0.03,3.3-0.02
				c1.25,0.01,2.55,0.03,3.93,0.08c1.41,0.04,2.84,0.11,4.3,0.21c1.46,0.09,2.83,0.21,4.1,0.34c1.28,0.13,2.41,0.29,3.42,0.46
				c1,0.18,1.78,0.38,2.34,0.61c1.33,0.54,2.46,1.18,3.37,1.91c0.91,0.73,1.64,1.51,2.18,2.32c0.54,0.82,0.9,1.66,1.09,2.53
				c0.19,0.87,0.24,1.72,0.17,2.55c-0.16,1.75-0.64,3.15-1.43,4.21c-0.79,1.06-1.62,1.88-2.5,2.46c-0.88,0.59-1.67,0.98-2.37,1.19
				c-0.7,0.2-1.07,0.32-1.11,0.35c-0.04,0.03,0.07,0.03,0.31,0c0.24-0.03,0.57,0.02,0.97,0.14c0.4,0.13,0.83,0.38,1.28,0.77
				c0.45,0.39,0.85,1.02,1.21,1.88c0.35,0.86,0.61,2.03,0.75,3.48c0.14,1.46,0.13,3.32-0.03,5.59c-0.15,1.95-0.23,2.93-0.38,4.88
				c-0.36,0.03-0.73,0.04-1.08,0.03c-0.36-0.01-0.85-0.05-1.47-0.1c-0.46-0.04-1-0.09-1.63-0.15c-0.63-0.06-1.44-0.16-2.41-0.29
				c-1.66-0.21-2.48-0.31-4.14-0.49c0.06-1.48,0.09-2.22,0.15-3.69c0.07-1.92,0.04-3.43-0.1-4.52c-0.14-1.1-0.38-1.94-0.72-2.54
				c-0.34-0.59-0.76-1-1.26-1.22c-0.5-0.22-1.05-0.39-1.66-0.51c-0.54-0.12-0.82-0.18-1.36-0.3c0.02,2.11,0.03,3.17,0.05,5.29
				c0.03,1.83,0.03,3.11,0,3.84c-0.03,0.67-0.08,1.08-0.17,1.22c-0.09,0.14-0.23,0.21-0.43,0.2c-0.1,0-0.32,0-0.67,0
				c-0.35,0-0.79,0-1.33,0c-0.54,0-1.15,0-1.82-0.01c-0.67,0-1.37,0.01-2.1,0.02c-2.11,0.03-3.16,0.06-5.27,0.13
				c-0.08-0.65-0.11-0.98-0.19-1.63c0-0.03-0.02-0.5-0.07-1.39c-0.05-0.9-0.1-2.08-0.16-3.55c-0.06-1.47-0.13-3.15-0.21-5.02
				c-0.08-1.87-0.15-3.78-0.19-5.74c-0.05-1.95-0.1-3.86-0.15-5.71c-0.05-1.86-0.08-3.5-0.07-4.94c0-1.38,0.03-2.5,0.08-3.36
				C215.32,196.41,215.41,195.94,215.51,195.88z M227.33,210.55c0.04,0.1,0.37,0.2,1.03,0.23c1.21,0.05,2.2-0.04,2.98-0.28
				c0.77-0.24,1.39-0.54,1.85-0.92c0.45-0.38,0.77-0.79,0.96-1.25c0.18-0.45,0.29-0.89,0.31-1.3c0.04-0.7-0.11-1.26-0.44-1.66
				c-0.33-0.4-0.75-0.71-1.25-0.93c-0.5-0.22-1.05-0.36-1.65-0.42c-0.6-0.06-1.13-0.1-1.58-0.12c-0.53-0.02-0.95,0-1.25,0.07
				c-0.3,0.07-0.53,0.21-0.68,0.43c-0.15,0.22-0.25,0.53-0.3,0.93c-0.05,0.4-0.08,0.9-0.11,1.51c0,0.13-0.01,0.2-0.01,0.34
				c-0.03,0.83-0.03,1.58,0,2.23S227.29,210.46,227.33,210.55z"/>
			<path class="st2" d="M249.85,218.6c0.04-0.35,0.1-0.87,0.19-1.55c0.09-0.68,0.19-1.47,0.29-2.36c0.11-0.89,0.23-1.86,0.35-2.91
				c0.13-1.05,0.24-2.11,0.36-3.2c0.08-0.76,0.12-1.15,0.2-1.91c0.32-3.56,0.49-5.33,0.81-8.89c1.23,0.13,1.84,0.19,3.07,0.33
				c0.43,0.05,0.92,0.1,1.46,0.14c0.54,0.05,1.11,0.1,1.7,0.15c0.59,0.06,1.17,0.11,1.73,0.16c0.56,0.05,1.07,0.1,1.54,0.12
				c1.34,0.12,2.01,0.18,3.35,0.31c-0.55,3.94-0.82,5.9-1.37,9.84c-0.46,3.3-0.83,6.15-1.11,8.54c-0.28,2.4-0.52,4.45-0.7,6.15
				c-0.19,1.7-0.33,3.1-0.43,4.18c-0.1,1.08-0.19,1.93-0.28,2.53c-0.13,0.95-0.29,1.51-0.48,1.68c-4.98-0.89-7.47-1.28-12.48-1.98
				C248.76,225.41,249.12,223.14,249.85,218.6z"/>
			<path class="st2" d="M280.37,224.6c0.1,0.02,0.21-0.09,0.32-0.33c0.06-0.12,0.2-0.42,0.44-0.92c0.24-0.49,0.52-1.08,0.85-1.77
				c0.33-0.68,0.66-1.4,1.01-2.15c0.34-0.75,0.67-1.45,0.98-2.1c0.31-0.65,0.56-1.21,0.76-1.66c0.2-0.45,0.3-0.7,0.32-0.77
				c1.11-2.52,1.68-3.77,2.81-6.28c0.71-1.85,1.07-2.78,1.8-4.63c2.36,0.61,3.54,0.93,5.88,1.59c1.61,0.43,2.98,0.81,4.12,1.14
				c1.13,0.32,1.71,0.51,1.74,0.55c-0.02,0.06-0.12,0.27-0.32,0.64c-0.2,0.36-0.47,0.83-0.79,1.41c-0.33,0.58-0.71,1.26-1.16,2.04
				c-0.45,0.78-0.9,1.61-1.37,2.48c-1.74,3.14-3.26,6.06-4.58,8.76c-1.32,2.7-2.44,5.06-3.36,7.08c-0.93,2.02-1.67,3.63-2.22,4.84
				c-0.56,1.2-0.93,1.9-1.1,2.09c-0.08,0.05-0.4,0.03-0.97-0.07c-0.57-0.09-1.31-0.24-2.21-0.43c-1.1-0.23-2.34-0.51-3.72-0.81
				c-1.38-0.31-2.68-0.61-3.9-0.9c-1.22-0.29-2.25-0.54-3.1-0.76c-0.85-0.22-1.3-0.36-1.36-0.43c-0.05-0.07-0.12-0.75-0.2-2.03
				c-0.08-1.28-0.18-2.92-0.29-4.92c-0.11-2-0.25-4.23-0.42-6.69c-0.17-2.46-0.37-4.9-0.59-7.31c-0.22-2.42-0.46-4.68-0.71-6.79
				c-0.25-2.11-0.51-3.81-0.75-5.11c-0.03-0.04-0.04-0.1-0.03-0.2c0.02-0.13,0.18-0.19,0.5-0.19c0.31,0,0.93,0.07,1.86,0.21
				c0.36,0.06,0.76,0.12,1.21,0.19c0.45,0.07,0.96,0.18,1.52,0.29c1.74,0.35,3.14,0.59,4.08,0.79c0.94,0.2,1.6,0.41,1.98,0.62
				c0.38,0.22,0.57,0.49,0.57,0.81c0,0.33-0.03,0.79-0.06,1.4c-0.1,3.75-0.15,7.13-0.19,10.07c-0.02,1.26-0.03,2.5-0.01,3.71
				c0.02,1.21,0.05,2.3,0.09,3.27c0.04,0.97,0.11,1.75,0.2,2.34S280.2,224.57,280.37,224.6z"/>
			<path class="st2" d="M300.36,227.65c0.09-0.34,0.23-0.84,0.41-1.5c0.19-0.66,0.4-1.42,0.64-2.29c0.24-0.86,0.5-1.8,0.78-2.82
				c0.28-1.02,0.56-2.05,0.83-3.11c0.19-0.74,0.29-1.12,0.48-1.86c0.85-3.47,1.28-5.2,2.13-8.67c1.2,0.31,1.8,0.47,3.01,0.79
				c0.42,0.11,0.9,0.23,1.43,0.36c0.53,0.13,1.09,0.26,1.67,0.41c0.58,0.14,1.15,0.29,1.7,0.42c0.55,0.14,1.05,0.26,1.52,0.36
				c1.32,0.32,1.98,0.48,3.3,0.81c-1.13,3.81-1.69,5.72-2.82,9.53c-0.95,3.19-1.74,5.95-2.37,8.28c-0.64,2.33-1.18,4.32-1.62,5.98
				c-0.44,1.66-0.79,3.01-1.05,4.07c-0.26,1.06-0.48,1.88-0.65,2.46c-0.27,0.92-0.52,1.45-0.73,1.58c-4.83-1.63-7.25-2.4-12.13-3.85
				C298.26,234.22,298.95,232.03,300.36,227.65z"/>
			<path class="st2" d="M345.88,220.27c0.04,0.09,0,0.77-0.15,2.05c-0.15,1.28-0.35,2.92-0.63,4.91c-0.28,1.99-0.58,4.21-0.93,6.65
				c-0.34,2.45-0.68,4.87-1.02,7.27c-0.33,2.4-0.64,4.65-0.91,6.75c-0.27,2.1-0.46,3.81-0.57,5.11c0.02,0.04,0.01,0.11-0.03,0.2
				c-0.09,0.21-0.38,0.28-0.88,0.23c-0.5-0.05-1.5-0.38-2.99-0.98c-0.32-0.13-0.47-0.19-0.79-0.32c-1.54-0.65-2.72-1.14-3.53-1.48
				c-0.81-0.35-1.38-0.65-1.68-0.92c-0.31-0.27-0.44-0.57-0.39-0.89c0.05-0.32,0.15-0.8,0.35-1.36c0.09-0.26,0.2-0.57,0.29-0.92
				c0.09-0.34,0.19-0.67,0.29-0.99c0.1-0.32,0.18-0.59,0.22-0.81c0.05-0.22,0.06-0.35,0.04-0.39c-0.15-0.09-0.34-0.2-0.59-0.32
				c-0.24-0.12-0.54-0.27-0.9-0.43c-0.35-0.17-0.8-0.35-1.34-0.54s-1.18-0.41-1.93-0.64c-0.75-0.23-1.63-0.48-2.65-0.73
				c-0.93,1.75-1.39,2.63-2.32,4.38c-2.16-0.62-3.23-0.92-5.4-1.51c-2.14-0.66-3.21-0.98-5.35-1.59c0.02-0.06,0.15-0.31,0.39-0.76
				c0.24-0.44,0.55-1.01,0.94-1.69c0.39-0.68,0.83-1.45,1.32-2.3c0.49-0.85,1.01-1.69,1.56-2.53c1.91-3.02,3.65-5.82,5.19-8.4
				c1.55-2.58,2.89-4.82,4.03-6.74c1.13-1.92,2.06-3.44,2.76-4.58c0.7-1.13,1.16-1.78,1.37-1.95c0.09-0.04,0.44,0.03,1.06,0.2
				c0.62,0.17,1.41,0.43,2.38,0.76c1.18,0.4,2.5,0.88,3.98,1.44c1.47,0.56,2.85,1.11,4.14,1.66c1.28,0.54,2.37,1.02,3.26,1.43
				C345.37,219.94,345.84,220.19,345.88,220.27z M333.59,237.69c0.01-0.03,0.08-0.33,0.22-0.89c0.13-0.56,0.3-1.26,0.49-2.09
				c0.19-0.83,0.38-1.73,0.57-2.68c0.18-0.96,0.33-1.86,0.45-2.7c0.12-0.84,0.17-1.56,0.16-2.16c-0.01-0.6-0.1-0.93-0.27-0.99
				c-0.13-0.05-0.32,0.09-0.55,0.41c-0.08,0.11-0.28,0.4-0.6,0.88c-0.32,0.48-0.71,1.06-1.16,1.73c-0.45,0.67-0.91,1.38-1.38,2.13
				c-0.47,0.75-0.91,1.45-1.33,2.1c-0.42,0.65-0.76,1.2-1.02,1.65c-0.27,0.45-0.41,0.7-0.43,0.76c-0.03,0.09,0.26,0.27,0.88,0.54
				c0.62,0.27,1.25,0.52,1.9,0.76c0.1,0.04,0.26,0.09,0.49,0.18c0.23,0.08,0.46,0.16,0.69,0.23c0.23,0.07,0.43,0.12,0.61,0.15
				C333.49,237.72,333.58,237.72,333.59,237.69z"/>
		</g>
	</g>
</g>
</svg>
